<svg width="304" height="113" viewBox="0 0 304 113" fill="none" xmlns="http://www.w3.org/2000/svg">
<g filter="url(#filter0_d)">
<path d="M2 20C2 10.0589 10.0589 2 20 2H276C285.941 2 294 10.0589 294 20V84C294 93.9411 285.941 102 276 102H20C10.0589 102 2 93.9411 2 84V20Z" fill="white"/>
<path d="M28 70V40H34V34H40V28H58V34H64V40H70V70H58V58H40V70H28ZM40 52H58V40H52V34H46V40H40V52ZM88 70V64H82V58H76V40H82V34H88V28H118V34H94V40H88V58H94V64H106V52H100V46H118V70H88ZM124 70V40H130V34H136V28H154V34H160V40H166V70H154V58H136V70H124ZM136 52H154V40H148V34H142V40H136V52ZM178 70V64H190V34H178V28H214V34H202V64H214V70H178ZM220 70V28H232V34H238V40H244V46H250V28H262V70H250V58H244V52H238V46H232V70H220Z" fill="black"/>
<path d="M20 4H276V0H20V4ZM292 20V84H296V20H292ZM276 100H20V104H276V100ZM4 84V20H0V84H4ZM20 100C11.1634 100 4 92.8366 4 84H0C0 95.0457 8.95431 104 20 104V100ZM292 84C292 92.8366 284.837 100 276 100V104C287.046 104 296 95.0457 296 84H292ZM276 4C284.837 4 292 11.1634 292 20H296C296 8.95431 287.046 0 276 0V4ZM20 0C8.95431 0 0 8.95431 0 20H4C4 11.1634 11.1634 4 20 4V0Z" fill="black"/>
</g>
<defs>
<filter id="filter0_d" x="0" y="0" width="304" height="113" filterUnits="userSpaceOnUse" color-interpolation-filters="sRGB">
<feFlood flood-opacity="0" result="BackgroundImageFix"/>
<feColorMatrix in="SourceAlpha" type="matrix" values="0 0 0 0 0 0 0 0 0 0 0 0 0 0 0 0 0 0 127 0"/>
<feOffset dx="8" dy="9"/>
<feColorMatrix type="matrix" values="0 0 0 0 0.666667 0 0 0 0 0.666667 0 0 0 0 0.666667 0 0 0 0.84 0"/>
<feBlend mode="normal" in2="BackgroundImageFix" result="effect1_dropShadow"/>
<feBlend mode="normal" in="SourceGraphic" in2="effect1_dropShadow" result="shape"/>
</filter>
</defs>
</svg>
