<svg width="304" height="113" viewBox="0 0 304 113" fill="none" xmlns="http://www.w3.org/2000/svg">
<g filter="url(#filter0_d)">
<path d="M2 20C2 10.0589 10.0589 2 20 2H276C285.941 2 294 10.0589 294 20V84C294 93.9411 285.941 102 276 102H20C10.0589 102 2 93.9411 2 84V20Z" fill="white"/>
<path d="M40 70V64H34V58H28V40H34V34H40V28H64V34H70V40H58V34H46V40H40V58H46V64H58V58H70V64H64V70H40ZM76 70V28H88V46H106V28H118V70H106V52H88V70H76ZM124 70V28H166V34H136V46H160V52H136V64H166V70H124ZM184 70V64H178V58H172V40H178V34H184V28H208V34H214V40H202V34H190V40H184V58H190V64H202V58H214V64H208V70H184ZM220 70V28H232V46H238V40H244V34H250V28H262V34H256V40H250V46H244V52H250V58H256V64H262V70H244V64H238V58H232V70H220Z" fill="black"/>
<path d="M20 4H276V0H20V4ZM292 20V84H296V20H292ZM276 100H20V104H276V100ZM4 84V20H0V84H4ZM20 100C11.1634 100 4 92.8366 4 84H0C0 95.0457 8.95431 104 20 104V100ZM292 84C292 92.8366 284.837 100 276 100V104C287.046 104 296 95.0457 296 84H292ZM276 4C284.837 4 292 11.1634 292 20H296C296 8.95431 287.046 0 276 0V4ZM20 0C8.95431 0 0 8.95431 0 20H4C4 11.1634 11.1634 4 20 4V0Z" fill="black"/>
</g>
<defs>
<filter id="filter0_d" x="0" y="0" width="304" height="113" filterUnits="userSpaceOnUse" color-interpolation-filters="sRGB">
<feFlood flood-opacity="0" result="BackgroundImageFix"/>
<feColorMatrix in="SourceAlpha" type="matrix" values="0 0 0 0 0 0 0 0 0 0 0 0 0 0 0 0 0 0 127 0"/>
<feOffset dx="8" dy="9"/>
<feColorMatrix type="matrix" values="0 0 0 0 0.516667 0 0 0 0 0.498153 0 0 0 0 0.498153 0 0 0 1 0"/>
<feBlend mode="normal" in2="BackgroundImageFix" result="effect1_dropShadow"/>
<feBlend mode="normal" in="SourceGraphic" in2="effect1_dropShadow" result="shape"/>
</filter>
</defs>
</svg>
