<svg width="234" height="99" viewBox="0 0 234 99" fill="none" xmlns="http://www.w3.org/2000/svg">
<g filter="url(#filter0_d)">
<path d="M2 20C2 10.0589 10.0589 2 20 2H206C215.941 2 224 10.0589 224 20V70C224 79.9411 215.941 88 206 88H20C10.0589 88 2 79.9411 2 70V20Z" fill="white"/>
<path d="M36.5 57.75V53.5H32.25V49.25H28V36.5H32.25V32.25H36.5V28H53.5V32.25H57.75V36.5H49.25V32.25H40.75V36.5H36.5V49.25H40.75V53.5H49.25V49.25H57.75V53.5H53.5V57.75H36.5ZM62 57.75V28H70.5V40.75H83.25V28H91.75V57.75H83.25V45H70.5V57.75H62ZM96 57.75V28H125.75V32.25H104.5V40.75H121.5V45H104.5V53.5H125.75V57.75H96ZM138.5 57.75V53.5H134.25V49.25H130V36.5H134.25V32.25H138.5V28H155.5V32.25H159.75V36.5H151.25V32.25H142.75V36.5H138.5V49.25H142.75V53.5H151.25V49.25H159.75V53.5H155.5V57.75H138.5ZM164 57.75V28H172.5V40.75H176.75V36.5H181V32.25H185.25V28H193.75V32.25H189.5V36.5H185.25V40.75H181V45H185.25V49.25H189.5V53.5H193.75V57.75H181V53.5H176.75V49.25H172.5V57.75H164Z" fill="black"/>
<path d="M20 4H206V0H20V4ZM222 20V70H226V20H222ZM206 86H20V90H206V86ZM4 70V20H0V70H4ZM20 86C11.1634 86 4 78.8366 4 70H0C0 81.0457 8.95431 90 20 90V86ZM222 70C222 78.8366 214.837 86 206 86V90C217.046 90 226 81.0457 226 70H222ZM206 4C214.837 4 222 11.1634 222 20H226C226 8.9543 217.046 0 206 0V4ZM20 0C8.9543 0 0 8.9543 0 20H4C4 11.1634 11.1634 4 20 4V0Z" fill="black"/>
</g>
<defs>
<filter id="filter0_d" x="0" y="0" width="234" height="99" filterUnits="userSpaceOnUse" color-interpolation-filters="sRGB">
<feFlood flood-opacity="0" result="BackgroundImageFix"/>
<feColorMatrix in="SourceAlpha" type="matrix" values="0 0 0 0 0 0 0 0 0 0 0 0 0 0 0 0 0 0 127 0"/>
<feOffset dx="8" dy="9"/>
<feColorMatrix type="matrix" values="0 0 0 0 0.516667 0 0 0 0 0.498153 0 0 0 0 0.498153 0 0 0 1 0"/>
<feBlend mode="normal" in2="BackgroundImageFix" result="effect1_dropShadow"/>
<feBlend mode="normal" in="SourceGraphic" in2="effect1_dropShadow" result="shape"/>
</filter>
</defs>
</svg>
